PathFileType	4	(X/Y/Z)	\\147.46.242.158\로컬 디스크 (e)\MOCAP Data\Iguana Capture\iguana\Project 2\Capture day 6 after broken\Session 2\Take08 good walk.trc
DataRate	CameraRate	NumFrames	NumMarkers	Units	OrigDataRate	OrigDataStartFrame	OrigNumFrames
120.0	120.0	7	23	mm	120.0	89	9299
Frame#	Time	ana:head1			ana:head2			ana:bone1			ana:bone2			ana:bone3			ana:tail1			ana:tail2			ana:tail3			ana:tail4			ana:Rforefoot1			ana:Rforefoot2			ana:Rforefoot3			ana:Lforefoot1			ana:Lforefoot2			ana:Lforefoot3			ana:RhindLeg1			ana:RhindLeg2			ana:RhindLeg3			ana:RhindLeg4			ana:LhindLeg1			ana:LhindLeg2			ana:LhindLeg3			ana:LhindLeg4			
		X1	Y1	Z1	X2	Y2	Z2	X3	Y3	Z3	X4	Y4	Z4	X5	Y5	Z5	X6	Y6	Z6	X7	Y7	Z7	X8	Y8	Z8	X9	Y9	Z9	X10	Y10	Z10	X11	Y11	Z11	X12	Y12	Z12	X13	Y13	Z13	X14	Y14	Z14	X15	Y15	Z15	X16	Y16	Z16	X17	Y17	Z17	X18	Y18	Z18	X19	Y19	Z19	X20	Y20	Z20	X21	Y21	Z21	X22	Y22	Z22	X23	Y23	Z23	

8721	72.667	163.35252	163.36620	46.12708	155.05676	169.75345	47.45176	137.58838	182.59772	42.07474	117.14254	201.65704	40.31514	87.79327	224.41698	33.41521	66.36702	248.27116	24.42243	50.01999	276.46979	13.20109	40.10690	319.43747	7.44547	34.33447	352.67435	6.61525	130.86006	173.06535	25.52005	118.48026	169.87401	16.62053	129.38345	169.46530	2.64145	146.56927	191.70473	30.19970	144.76147	205.51103	33.28117	148.25294	211.77922	17.87879	80.44464	221.79167	27.19310	64.97532	221.60759	23.98166	46.49130	230.96262	19.25349	35.90152	234.58725	10.01349	96.25426	232.44716	25.50392	108.25933	242.98828	19.19156	96.25619	249.49944	5.21256	107.19946	246.76433	3.82245	
8722	72.675	164.00838	162.20442	45.70114	155.31197	168.93520	47.15882	138.51474	182.00620	42.26757	118.07254	201.11630	40.37730	88.54903	223.69926	33.69548	66.67875	247.61853	24.39244	50.61710	275.26785	13.26890	39.89119	318.10144	6.99221	34.17146	351.21426	6.51548	131.39691	172.28876	25.65778	118.59798	169.92628	16.76730	129.43224	169.43939	2.64726	147.92676	190.54214	30.28578	146.35483	204.31638	33.74261	151.19638	209.92075	18.21238	81.29842	221.27690	27.28356	65.73430	220.35037	23.87155	47.36066	229.70558	19.29844	37.59428	232.65019	8.89675	96.72185	231.87605	25.48430	108.42263	242.88150	19.12448	96.26749	249.46960	5.35945	107.29066	246.83357	3.91635	
8723	72.683	164.59148	161.35098	45.80012	156.16081	168.38223	47.27200	139.15306	181.11043	42.18652	118.92976	200.56589	40.37524	89.29106	223.17892	33.37067	67.16877	246.24716	24.41504	50.99117	274.07025	13.25945	39.88671	317.11649	7.11885	34.06684	350.37308	6.60981	131.85757	171.76918	25.75782	118.37611	169.70641	16.83679	129.40225	169.40556	2.67712	148.55052	189.31931	30.32471	147.92886	202.99539	33.56488	154.13606	207.81604	18.81562	82.11286	220.36694	27.34824	66.76008	219.11282	23.87153	48.05856	228.17850	19.24875	37.65139	231.35921	10.19547	97.23946	231.45258	25.47402	108.44714	243.02531	19.30756	96.19819	249.36462	5.31573	107.26009	246.93983	3.73263	
8724	72.692	165.21156	160.81158	45.65420	156.69017	167.50729	47.01036	139.49300	180.01279	41.89324	119.67996	199.97404	40.45124	90.49628	222.13586	33.36385	67.65392	245.30960	24.39678	51.29147	273.04761	13.12496	39.97570	316.05615	7.06068	34.25472	349.37134	6.85683	131.99870	171.21333	25.60579	119.12695	169.47511	17.09295	129.40073	169.37207	2.68241	149.53796	188.37691	30.79200	149.17668	201.53250	33.55135	156.56702	205.55519	18.95132	82.97203	219.57338	27.18103	67.42432	217.70915	24.17457	48.82832	226.66646	19.46392	38.53684	229.44095	9.80236	97.67167	230.74709	25.32914	108.57557	242.98170	19.28854	96.18504	249.24356	5.36439	107.10780	246.77281	3.72955	
8725	72.700	165.52722	159.93651	46.15182	157.04271	166.47372	47.25602	140.27121	179.49289	42.16808	120.39756	199.36684	40.38936	90.86107	221.67667	33.34880	68.08752	244.31941	24.46741	51.64035	272.12732	13.08449	40.28937	314.95157	7.21131	34.14190	348.05795	6.63852	132.31717	170.53168	25.74917	119.27894	169.38261	17.22117	129.42416	169.41098	2.67526	149.79094	187.19072	30.39976	150.68547	200.61034	34.03650	159.17390	203.33321	19.95352	83.69859	218.65430	27.26714	68.22044	215.91357	24.49162	49.71663	225.10905	19.51742	38.96872	227.45241	10.08192	98.16135	230.33296	25.45567	108.68576	242.93411	19.30215	96.12891	249.20142	5.62110	107.16946	246.75383	3.51720	
8726	72.708	165.95183	158.99112	46.30124	157.37343	165.76900	47.20575	140.61507	178.79955	42.38585	121.12172	198.93303	40.49538	91.94088	220.66255	33.21224	68.40145	243.43626	24.20985	51.93670	271.03058	12.86588	40.43085	314.02859	7.04394	34.30878	347.03784	6.80011	132.65227	170.37578	25.49343	119.40659	169.18564	17.18959	129.43419	169.35397	2.68717	150.93924	186.03716	30.91438	151.84116	199.30191	33.95508	161.56195	200.63248	20.25034	84.31122	217.73383	27.16002	69.09056	214.07866	24.62326	50.69666	223.32675	19.64605	40.18557	225.26686	9.86419	98.84181	230.02803	25.62634	108.73656	242.76910	19.21597	96.10774	249.00284	5.60586	107.29015	246.76408	3.72940	
8727	72.717	166.35547	158.09755	45.84106	157.83206	165.01443	47.51526	140.55679	177.94617	42.18282	121.68687	198.35274	40.52555	92.38889	220.18118	33.36129	68.56007	242.53853	23.97152	52.12060	270.12589	12.67949	40.42171	312.90692	7.12925	34.32605	346.30597	6.96285	132.69360	169.59438	25.97570	119.47292	169.18301	17.14160	129.36339	169.23007	2.84510	151.35626	184.83659	30.80878	153.14244	197.95285	34.31096	163.61537	198.07054	20.80429	84.87756	217.04491	26.82623	69.97141	212.19585	25.13502	51.88817	221.89532	20.19072	41.32349	223.13147	10.35711	99.14063	229.51201	25.54979	108.77028	242.54715	19.12877	96.12228	248.71919	5.64010	107.28155	246.70107	3.70300	
